<?xml version="1.0" encoding="iso-8859-1"?>
<!-- Uploaded to: SVG Repo, www.svgrepo.com, Generator: SVG Repo Mixer Tools -->
<svg version="1.1" id="Layer_1" xmlns="http://www.w3.org/2000/svg" xmlns:xlink="http://www.w3.org/1999/xlink" 
	 viewBox="0 0 512 512" xml:space="preserve">
<path style="fill:#F7B239;" d="M43.219,512h312.97c19.334,0,35.008-15.673,35.008-35.008V58.295
	c0-19.334-15.673-35.008-35.008-35.008H43.219c-19.334,0-35.008,15.673-35.008,35.008v418.698C8.211,496.327,23.885,512,43.219,512z
	"/>
<path style="fill:#F2F2F2;" d="M343.32,464.123H56.087V71.163H343.32V464.123z"/>
<circle style="fill:#F95428;" cx="165.666" cy="356.76" r="63.835"/>
<path style="fill:#F7B239;" d="M165.672,356.76h63.835c0,22.24-11.38,41.832-28.639,53.244L165.672,356.76z"/>
<path style="fill:#2BA5F7;" d="M229.507,356.76h-63.835v-63.835C200.931,292.925,229.507,321.5,229.507,356.76z"/>
<path style="fill:#CCCCCC;" d="M286.374,23.287v45.922c0,0.652-0.027,1.303-0.106,1.942c-0.958,9.908-9.323,17.661-19.51,17.661
	h-1.556c-5.426,0-10.32,2.194-13.871,5.745s-5.745,8.458-5.745,13.871c0,10.839-8.777,19.616-19.616,19.616h-52.531
	c-5.413,0-10.32-2.194-13.871-5.745s-5.745-8.458-5.745-13.871c0-10.825-8.777-19.616-19.603-19.616h-1.569
	c-10.187,0-18.552-7.753-19.51-17.661c-0.08-0.638-0.106-1.29-0.106-1.942V23.287v-3.684C113.034,8.777,121.811,0,132.65,0h134.108
	c10.839,0,19.616,8.777,19.616,19.603V23.287z"/>
<g>
	<rect x="96.969" y="162.913" style="fill:#B3B3B3;" width="205.47" height="19.949"/>
	<rect x="96.969" y="212.293" style="fill:#B3B3B3;" width="205.47" height="19.949"/>
</g>
<g>
	<path style="fill:#F95428;" d="M450.995,237.325l0.368-0.368c9.942,9.942,17.605,22.124,22.229,35.789l-17.479,17.479
		l-99.398,99.398l-0.011-0.011c-5.256-13.243-22.85-15.387-32.73-25.267L450.995,237.325z"/>
	<path style="fill:#F95428;" d="M323.974,364.346c-9.869-9.869-12.013-27.464-25.256-32.72l-0.011-0.011l99.398-99.398
		l17.479-17.479c13.653,4.615,25.856,12.298,35.778,22.219l-0.368,0.368L323.974,364.346z"/>
</g>
<rect x="295.648" y="288.545" transform="matrix(-0.7071 0.7071 -0.7071 -0.7071 879.0609 227.836)" style="fill:#E54728;" width="193.393" height="14.864"/>
<path style="fill:#2BA5F7;" d="M445.781,184.542c13.653,4.615,25.856,12.298,35.778,22.219c9.942,9.942,17.605,22.124,22.229,35.789
	l-33.35,33.35c-4.624-13.663-12.287-25.845-22.229-35.789c-9.922-9.922-22.124-17.605-35.778-22.219L445.781,184.542z"/>
<path style="fill:#F95428;" d="M292.022,365.523c7.357,1.43,26.255-6.873,31.952-1.177c5.707,5.707-2.596,24.583-1.166,31.962
	l-38.364,7.567L292.022,365.523z"/>
<path style="fill:#CCCCCC;" d="M298.718,331.626c13.243,5.256,25.121,13.117,34.99,22.986c9.88,9.88,17.742,21.757,22.997,35
	l0.011,0.011l-33.907,6.684c-1.43-7.378-5.003-14.379-10.71-20.086c-5.697-5.697-12.718-9.271-20.075-10.7l6.684-33.907
	L298.718,331.626z"/>
<rect x="218.197" y="261.672" style="fill:#B3B3B3;" width="84.236" height="19.949"/>
<path style="fill:#F7B239;" d="M227.632,59.181h-55.856c-5.508,0-9.974-4.466-9.974-9.974s4.466-9.974,9.974-9.974h55.856
	c5.508,0,9.974,4.466,9.974,9.974S233.14,59.181,227.632,59.181z"/>
</svg>